<svg xmlns="http://www.w3.org/2000/svg" viewBox="0 0 22 22" width="22" height="22" >
<path fill="#212a3a" d="M25.75,22.51a3.51,3.51,0,1,1-6.93-.81h-.64v4.87h8.11V21.7h-.64A3.49,3.49,0,0,1,25.75,22.51Z" transform="translate(-11.24 -11.51)"/>
<rect fill="#212a3a" x="12.89" y="6.94" width="2.16" height="2.16"/>
<circle fill="#212a3a" cx="11" cy="11" r="1.89" />
<path fill="#212a3a" d="M22.24,11.51a11,11,0,1,0,11,11A11,11,0,0,0,22.24,11.51Zm5.68,15.06a1.63,1.63,0,0,1-1.62,1.62H18.18a1.63,1.63,0,0,1-1.62-1.62V18.45a1.63,1.63,0,0,1,1.62-1.62h8.11a1.63,1.63,0,0,1,1.62,1.62Z" transform="translate(-11.24 -11.51)"/>
</svg>  