<svg xmlns="http://www.w3.org/2000/svg" width="22" height="22" viewBox="0 0 22 22">
<path fill="#212a3a" d="M20.34,9.34a11,11,0,1,0,11,11A11,11,0,0,0,20.34,9.34Zm6.39,15-1.88,0a1.32,1.32,0,0,1-.93-.29c-.7-.49-1.37-1.76-1.88-1.59s-.51,1.31-.51,1.31a.62.62,0,0,1-.12.37.72.72,0,0,1-.38.17h-.84a4.79,4.79,0,0,1-3.49-1.61,23.16,23.16,0,0,1-3.35-5.59s-.09-.24,0-.36.41-.14.41-.14h2a.87.87,0,0,1,.32.13.64.64,0,0,1,.18.24A13.72,13.72,0,0,0,17,18.6c.84,1.47,1.23,1.79,1.52,1.63s.29-2.07.29-2.07a2.09,2.09,0,0,0-.21-1,1,1,0,0,0-.62-.32c-.11,0,.07-.28.31-.4a4.48,4.48,0,0,1,1.75-.18,3.57,3.57,0,0,1,1,.1c.69.17.46.82.46,2.39,0,.5-.09,1.21.27,1.44.16.1.53,0,1.47-1.6A12.59,12.59,0,0,0,24,17a.43.43,0,0,1,.46-.28h2.12s.63-.08.74.22-.24,1-1.1,2.18c-1.42,1.91-1.58,1.73-.4,2.84a6.33,6.33,0,0,1,1.4,1.63C27.71,24.3,26.73,24.36,26.73,24.36Z" transform="translate(-9.34 -9.34)"/>
</svg>