<svg xmlns="http://www.w3.org/2000/svg"><symbol id="icon-fb" viewBox="0 0 34.02 34.02"><title>Facebook</title><path d="M17,34A17,17,0,1,0,0,17,17,17,0,0,0,17,34" style="fill:#547bbd"/><path d="M12.9,14.13h1.76V12.42a4.57,4.57,0,0,1,.57-2.64A3.13,3.13,0,0,1,18,8.5a11.05,11.05,0,0,1,3.15.32l-.44,2.6a5.94,5.94,0,0,0-1.42-.21c-.68,0-1.3.25-1.3.93v2h2.8l-.2,2.54H18v8.84h-3.3V16.67H12.9Z" style="fill:#fff"/></symbol><symbol id="icon-pin" viewBox="0 0 34.02 34.02"><title>Pin</title><path d="M17,34A17,17,0,1,0,0,17,17,17,0,0,0,17,34" style="fill:#eb5755"/><path d="M17,8.46A8.5,8.5,0,0,0,13.6,24.75a7.47,7.47,0,0,1,.15-2l1.09-4.63a3.27,3.27,0,0,1-.27-1.35c0-1.26.73-2.2,1.64-2.2a1.14,1.14,0,0,1,1.15,1.28,18.31,18.31,0,0,1-.75,3,1.32,1.32,0,0,0,1.34,1.64c1.61,0,2.7-2.07,2.7-4.52,0-1.86-1.26-3.26-3.54-3.26a4,4,0,0,0-4.19,4.07,2.46,2.46,0,0,0,.56,1.67.41.41,0,0,1,.12.47l-.17.68a.29.29,0,0,1-.43.21,3.27,3.27,0,0,1-1.74-3.25c0-2.42,2-5.31,6.08-5.31a5.08,5.08,0,0,1,5.38,4.87c0,3.34-1.85,5.83-4.59,5.83A2.44,2.44,0,0,1,16.05,21s-.49,2-.6,2.34a7.1,7.1,0,0,1-.86,1.82A8.5,8.5,0,1,0,17,8.46" style="fill:#fff"/></symbol><symbol id="icon-sprite-tw" viewBox="0 0 17.04 13.9"><title>Twitter</title><path d="M17,1.69a7,7,0,0,1-2,.55A3.5,3.5,0,0,0,16.58.31a7,7,0,0,1-2.22.85,3.5,3.5,0,0,0-6,3.19A9.92,9.92,0,0,1,1.16.7,3.5,3.5,0,0,0,2.24,5.37,3.5,3.5,0,0,1,.66,4.93h0A3.5,3.5,0,0,0,3.5,8.39a3.41,3.41,0,0,1-.92.12,3.46,3.46,0,0,1-.66-.06,3.5,3.5,0,0,0,3.26,2.43A7.07,7.07,0,0,1,0,12.33,9.94,9.94,0,0,0,15.3,4V3.51A7.09,7.09,0,0,0,17,1.7" style="fill:#3eb7b1"/></symbol><symbol id="icon-tw" viewBox="0 0 34.02 34.02"><title>Twitter</title><path d="M17,34A17,17,0,1,0,0,17,17,17,0,0,0,17,34" style="fill:#79ccf0"/><path d="M25.54,12.55a7,7,0,0,1-2,.55,3.5,3.5,0,0,0,1.54-1.93,7,7,0,0,1-2.22.85,3.5,3.5,0,0,0-6,3.19,9.92,9.92,0,0,1-7.2-3.65,3.5,3.5,0,0,0,1.08,4.67,3.5,3.5,0,0,1-1.58-.44v0A3.5,3.5,0,0,0,12,19.25a3.41,3.41,0,0,1-.92.12,3.46,3.46,0,0,1-.66-.06,3.5,3.5,0,0,0,3.26,2.43A7.07,7.07,0,0,1,8.5,23.19a9.94,9.94,0,0,0,15.3-8.37c0-.15,0-.3,0-.45a7.09,7.09,0,0,0,1.74-1.81" style="fill:#fff"/></symbol></svg>